<?xml version="1.0" encoding="UTF-8"?>
<!DOCTYPE svg PUBLIC "-//W3C//DTD SVG 1.1//EN" "http://www.w3.org/Graphics/SVG/1.1/DTD/svg11.dtd">
<svg xmlns="http://www.w3.org/2000/svg" version="1.1" width="268px" height="215px" style="shape-rendering:geometricPrecision; text-rendering:geometricPrecision; image-rendering:optimizeQuality; fill-rule:evenodd; clip-rule:evenodd" xmlns:xlink="http://www.w3.org/1999/xlink">
<g><path style="opacity:0.997" fill="#387ffe" d="M 121.5,60.5 C 150.044,58.8516 171.544,70.185 186,94.5C 200.934,130.355 192.434,159.188 160.5,181C 130.817,194.795 104.317,190.295 81,167.5C 64.6332,146.976 60.9665,124.309 70,99.5C 80.5663,77.6484 97.7329,64.6484 121.5,60.5 Z"/></g>
<g><path style="opacity:1" fill="#eff4ff" d="M 127.5,102.5 C 135.421,102.638 142.255,105.305 148,110.5C 149,113.167 150,115.833 151,118.5C 152.011,119.337 153.178,119.67 154.5,119.5C 155.947,131.365 151.447,140.032 141,145.5C 140.517,146.448 140.351,147.448 140.5,148.5C 133.5,148.5 126.5,148.5 119.5,148.5C 118.789,144.618 116.456,142.118 112.5,141C 106.75,135.326 104.583,128.493 106,120.5C 107,119.833 108,119.167 109,118.5C 109.869,115.67 111.036,113.003 112.5,110.5C 117.144,106.782 122.144,104.115 127.5,102.5 Z"/></g>
<g><path style="opacity:1" fill="#4284fe" d="M 128.5,105.5 C 130.484,105.383 132.15,106.05 133.5,107.5C 134.293,107.069 135.127,106.735 136,106.5C 137.631,108.628 139.798,109.961 142.5,110.5C 143.347,111.845 144.513,112.845 146,113.5C 146.492,114.549 146.326,115.549 145.5,116.5C 146.5,117.333 147.5,118.167 148.5,119C 136.167,119.667 123.833,119.667 111.5,119C 112.5,118.167 113.5,117.333 114.5,116.5C 113.253,114.958 113.253,113.458 114.5,112C 119.512,109.528 124.178,107.362 128.5,105.5 Z"/></g>
<g><path style="opacity:1" fill="#f1f5ff" d="M 127.5,109.5 C 129.977,109.051 131.977,109.717 133.5,111.5C 131.167,112.833 128.833,112.833 126.5,111.5C 126.863,110.817 127.196,110.15 127.5,109.5 Z"/></g>
<g><path style="opacity:1" fill="#e2ebff" d="M 119.5,112.5 C 122.588,112.197 124.254,113.53 124.5,116.5C 122.669,115.948 121.003,115.948 119.5,116.5C 118.374,115.192 118.374,113.858 119.5,112.5 Z"/></g>
<g><path style="opacity:1" fill="#e4edff" d="M 137.5,112.5 C 140.932,112.248 141.932,113.581 140.5,116.5C 139.167,115.167 137.833,115.167 136.5,116.5C 136.167,116 135.833,115.5 135.5,115C 136.056,113.989 136.722,113.156 137.5,112.5 Z"/></g>
<g><path style="opacity:1" fill="#97bcfe" d="M 109.5,122.5 C 115.966,123.83 122.799,124.497 130,124.5C 137.201,124.497 144.034,123.83 150.5,122.5C 151.404,123.209 151.737,124.209 151.5,125.5C 137.167,125.5 122.833,125.5 108.5,125.5C 108.263,124.209 108.596,123.209 109.5,122.5 Z"/></g>
<g><path style="opacity:1" fill="#337dfe" d="M 109.5,122.5 C 123.167,122.5 136.833,122.5 150.5,122.5C 144.034,123.83 137.201,124.497 130,124.5C 122.799,124.497 115.966,123.83 109.5,122.5 Z"/></g>
<g><path style="opacity:1" fill="#82b0fe" d="M 150.5,130.5 C 144.034,129.17 137.201,128.503 130,128.5C 122.799,128.503 115.966,129.17 109.5,130.5C 108.596,129.791 108.263,128.791 108.5,127.5C 122.833,127.5 137.167,127.5 151.5,127.5C 151.737,128.791 151.404,129.791 150.5,130.5 Z"/></g>
<g><path style="opacity:1" fill="#357ffe" d="M 150.5,130.5 C 149.955,132.593 149.122,134.593 148,136.5C 136,148.5 124,148.5 112,136.5C 110.878,134.593 110.045,132.593 109.5,130.5C 115.966,129.17 122.799,128.503 130,128.5C 137.201,128.503 144.034,129.17 150.5,130.5 Z"/></g>
</svg>
