<?xml version="1.0" encoding="UTF-8"?>
<!DOCTYPE svg PUBLIC "-//W3C//DTD SVG 1.1//EN" "http://www.w3.org/Graphics/SVG/1.1/DTD/svg11.dtd">
<svg xmlns="http://www.w3.org/2000/svg" version="1.1" width="152px" height="151px" style="shape-rendering:geometricPrecision; text-rendering:geometricPrecision; image-rendering:optimizeQuality; fill-rule:evenodd; clip-rule:evenodd" xmlns:xlink="http://www.w3.org/1999/xlink">
<g><path style="opacity:0.998" fill="#397ffe" d="M 65.5,19.5 C 99.1171,16.5471 122.95,30.2137 137,60.5C 146.906,95.4667 136.406,122.3 105.5,141C 73.3044,153.66 46.1377,146.826 24,120.5C 5.25835,87.4502 9.75835,57.9502 37.5,32C 46.0612,25.8817 55.3946,21.715 65.5,19.5 Z"/></g>
<g><path style="opacity:1" fill="#eaf1ff" d="M 73.5,67.5 C 83.2117,66.7091 87.0451,71.0424 85,80.5C 80.2843,85.395 75.2843,85.7283 70,81.5C 67.2316,75.7357 68.3983,71.069 73.5,67.5 Z"/></g>
<g><path style="opacity:1" fill="#3e82fe" d="M 74.5,69.5 C 83.3695,69.5166 85.7028,73.35 81.5,81C 74.388,83.5545 70.888,81.0545 71,73.5C 72.3756,72.2949 73.5423,70.9616 74.5,69.5 Z"/></g>
<g><path style="opacity:1" fill="#eef3ff" d="M 62.5,69.5 C 66.9707,69.6724 67.3041,70.5057 63.5,72C 60.5456,76.2839 61.5456,79.4505 66.5,81.5C 63.7719,82.9402 61.6052,82.2735 60,79.5C 58.8613,75.5789 59.6946,72.2456 62.5,69.5 Z"/></g>
<g><path style="opacity:1" fill="#e0eaff" d="M 88.5,69.5 C 94.9617,70.8054 96.795,74.4721 94,80.5C 92.4447,82.5152 90.6114,82.8485 88.5,81.5C 90.8249,80.348 92.1583,78.5147 92.5,76C 91.7326,73.4173 90.3993,71.2507 88.5,69.5 Z"/></g>
<g><path style="opacity:1" fill="#edf3ff" d="M 92.5,87.5 C 97.7644,87.4169 99.4311,89.7502 97.5,94.5C 96.3914,95.5896 95.3914,95.5896 94.5,94.5C 95.1667,93.5 95.8333,92.5 96.5,91.5C 94.6253,90.5905 93.292,89.2572 92.5,87.5 Z"/></g>
<g><path style="opacity:1" fill="#e6eeff" d="M 68.5,88.5 C 74.1764,88.3339 79.8431,88.5006 85.5,89C 91.6806,91.8475 92.0139,95.1808 86.5,99C 79.6492,101.316 72.9825,100.983 66.5,98C 63.5227,94.0526 64.1894,90.8859 68.5,88.5 Z"/></g>
<g><path style="opacity:1" fill="#eaf0ff" d="M 58.5,87.5 C 63.579,87.7825 63.7457,88.7825 59,90.5C 58.4604,92.1346 58.9604,93.4679 60.5,94.5C 57.9368,95.8114 56.2701,94.9781 55.5,92C 56.3146,90.3566 57.3146,88.8566 58.5,87.5 Z"/></g>
<g><path style="opacity:1" fill="#3b81fe" d="M 69.5,90.5 C 74.1785,90.3342 78.8452,90.5008 83.5,91C 86.8762,91.3071 88.2096,93.1405 87.5,96.5C 81.5368,97.5304 75.5368,97.6971 69.5,97C 65.6054,94.8457 65.6054,92.679 69.5,90.5 Z"/></g>
</svg>
