<?xml version="1.0" encoding="UTF-8"?>
<!DOCTYPE svg PUBLIC "-//W3C//DTD SVG 1.1//EN" "http://www.w3.org/Graphics/SVG/1.1/DTD/svg11.dtd">
<svg xmlns="http://www.w3.org/2000/svg" version="1.1" width="66px" height="75px" style="shape-rendering:geometricPrecision; text-rendering:geometricPrecision; image-rendering:optimizeQuality; fill-rule:evenodd; clip-rule:evenodd" xmlns:xlink="http://www.w3.org/1999/xlink">
<g><path style="opacity:0.966" fill="#5089fd" d="M 30.5,5.5 C 35.8064,4.64077 39.1397,6.80744 40.5,12C 37.7974,18.8691 33.6307,20.0358 28,15.5C 26.08,11.4342 26.9134,8.10082 30.5,5.5 Z"/></g>
<g><path style="opacity:0.98" fill="#4b86fd" d="M 24.5,16.5 C 26.6298,18.1271 28.6298,19.9604 30.5,22C 26.275,25.7218 22.6084,29.8885 19.5,34.5C 21.8416,39.902 25.0083,40.5687 29,36.5C 31.2086,19.4799 40.0419,14.6465 55.5,22C 61.2182,28.4742 61.7182,35.3075 57,42.5C 53.3333,46.1667 49.6667,49.8333 46,53.5C 43.2179,51.2295 41.0512,48.5628 39.5,45.5C 43.8333,43.1667 47.1667,39.8333 49.5,35.5C 50.1368,30.15 47.8034,27.9834 42.5,29C 40.2293,32.0746 39.0627,35.5746 39,39.5C 35.3942,47.5534 29.2275,50.72 20.5,49C 12.2395,45.6555 8.73951,39.4888 10,30.5C 10.5995,28.0904 11.7662,26.0904 13.5,24.5C 17.1667,21.8333 20.8333,19.1667 24.5,16.5 Z"/></g>
<g><path style="opacity:0.769" fill="#83a4fb" d="M 24.5,16.5 C 20.8333,19.1667 17.1667,21.8333 13.5,24.5C 15.9619,21.5361 18.6286,18.7028 21.5,16C 22.7494,15.2599 23.7494,15.4265 24.5,16.5 Z"/></g>
<g><path style="opacity:0.753" fill="#8baafb" d="M 49.5,35.5 C 47.1667,39.8333 43.8333,43.1667 39.5,45.5C 42.5,41.8333 45.8333,38.5 49.5,35.5 Z"/></g>
<g><path style="opacity:0.969" fill="#548afd" d="M 34.5,48.5 C 42.354,49.047 44.6874,52.8803 41.5,60C 35.7386,62.9929 31.7386,61.4929 29.5,55.5C 30.0649,52.2842 31.7316,49.9509 34.5,48.5 Z"/></g>
</svg>
