<?xml version="1.0" encoding="UTF-8"?>
<!DOCTYPE svg PUBLIC "-//W3C//DTD SVG 1.1//EN" "http://www.w3.org/Graphics/SVG/1.1/DTD/svg11.dtd">
<svg xmlns="http://www.w3.org/2000/svg" version="1.1" width="175px" height="170px" style="shape-rendering:geometricPrecision; text-rendering:geometricPrecision; image-rendering:optimizeQuality; fill-rule:evenodd; clip-rule:evenodd" xmlns:xlink="http://www.w3.org/1999/xlink">
<g><path style="opacity:0.998" fill="#397ffe" d="M 136.5,40.5 C 136.427,42.0269 137.094,43.0269 138.5,43.5C 151.253,65.0579 151.753,87.0579 140,109.5C 120.455,138.34 93.9547,147.507 60.5,137C 25.8844,119.591 13.7177,92.0908 24,54.5C 27.1255,45.9057 31.9588,38.5723 38.5,32.5C 41.0892,31.5806 43.0892,29.914 44.5,27.5C 52.5332,20.6367 61.8666,16.1367 72.5,14C 99.3086,10.0911 120.642,18.9244 136.5,40.5 Z"/></g>
<g><path style="opacity:0.765" fill="#8dadff" d="M 44.5,27.5 C 43.0892,29.914 41.0892,31.5806 38.5,32.5C 39.9108,30.086 41.9108,28.4194 44.5,27.5 Z"/></g>
<g><path style="opacity:0.643" fill="#a7c2fe" d="M 136.5,40.5 C 137.906,40.9731 138.573,41.9731 138.5,43.5C 137.094,43.0269 136.427,42.0269 136.5,40.5 Z"/></g>
<g><path style="opacity:1" fill="#ebf2ff" d="M 82.5,57.5 C 89.1982,56.9943 92.8649,59.9943 93.5,66.5C 98.0641,66.55 101.564,68.55 104,72.5C 104.667,78.5 104.667,84.5 104,90.5C 102.5,93.3333 100.333,95.5 97.5,97C 89.1667,97.6667 80.8333,97.6667 72.5,97C 69.6667,95.5 67.5,93.3333 66,90.5C 65.3333,84.8333 65.3333,79.1667 66,73.5C 68.0561,68.9354 71.5561,66.6021 76.5,66.5C 76.2801,61.9216 78.2801,58.9216 82.5,57.5 Z"/></g>
<g><path style="opacity:1" fill="#4183fe" d="M 82.5,60.5 C 86.8658,59.8469 89.8658,61.5135 91.5,65.5C 87.1667,66.8333 82.8333,66.8333 78.5,65.5C 79.1598,63.1853 80.4931,61.5186 82.5,60.5 Z"/></g>
<g><path style="opacity:1" fill="#3980fe" d="M 72.5,69.5 C 73.8333,69.5 75.1667,69.5 76.5,69.5C 77.1667,74.8333 77.8333,74.8333 78.5,69.5C 82.8333,69.5 87.1667,69.5 91.5,69.5C 92.1667,74.8333 92.8333,74.8333 93.5,69.5C 96.9612,69.1459 99.4612,70.4792 101,73.5C 101.667,79.1667 101.667,84.8333 101,90.5C 100.5,92.3333 99.3333,93.5 97.5,94C 89.1667,94.6667 80.8333,94.6667 72.5,94C 71.5838,93.6258 70.7504,93.1258 70,92.5C 68.4185,86.2774 68.0852,79.9441 69,73.5C 69.6897,71.6498 70.8564,70.3164 72.5,69.5 Z"/></g>
<g><path style="opacity:1" fill="#e4ecff" d="M 84.5,74.5 C 86.2798,75.9899 86.9465,77.9899 86.5,80.5C 88.1667,80.5 89.8333,80.5 91.5,80.5C 91.5,81.5 91.5,82.5 91.5,83.5C 89.8333,83.5 88.1667,83.5 86.5,83.5C 86.5,85.1667 86.5,86.8333 86.5,88.5C 85.5,88.5 84.5,88.5 83.5,88.5C 83.5,86.8333 83.5,85.1667 83.5,83.5C 81.8333,83.5 80.1667,83.5 78.5,83.5C 78.5,82.5 78.5,81.5 78.5,80.5C 80.1667,80.5 81.8333,80.5 83.5,80.5C 83.3253,78.3792 83.6586,76.3792 84.5,74.5 Z"/></g>
</svg>
