<?xml version="1.0" encoding="UTF-8"?>
<!DOCTYPE svg PUBLIC "-//W3C//DTD SVG 1.1//EN" "http://www.w3.org/Graphics/SVG/1.1/DTD/svg11.dtd">
<svg xmlns="http://www.w3.org/2000/svg" version="1.1" width="187px" height="171px" style="shape-rendering:geometricPrecision; text-rendering:geometricPrecision; image-rendering:optimizeQuality; fill-rule:evenodd; clip-rule:evenodd" xmlns:xlink="http://www.w3.org/1999/xlink">
<g><path style="opacity:0.998" fill="#3980fe" d="M 74.5,36.5 C 77.1522,36.5905 79.4855,35.9238 81.5,34.5C 114.811,29.0726 139.311,41.4059 155,71.5C 166.56,106.831 156.726,134.331 125.5,154C 94.4447,167.19 67.6114,161.357 45,136.5C 27.3943,110.738 27.061,84.7377 44,58.5C 51.8037,47.8589 61.9704,40.5256 74.5,36.5 Z"/></g>
<g><path style="opacity:0.78" fill="#87acfe" d="M 81.5,34.5 C 79.4855,35.9238 77.1522,36.5905 74.5,36.5C 76.5145,35.0762 78.8478,34.4095 81.5,34.5 Z"/></g>
<g><path style="opacity:1" fill="#d9e5ff" d="M 113.5,91.5 C 113.5,90.8333 113.167,90.5 112.5,90.5C 115.438,86.7339 114.771,83.5673 110.5,81C 105.335,79.9947 104.002,81.4947 106.5,85.5C 105.833,85.5 105.5,85.8333 105.5,86.5C 104.518,85.8592 103.518,85.1925 102.5,84.5C 98.8489,88.6516 95.0156,92.6516 91,96.5C 90.5026,99.146 90.3359,101.813 90.5,104.5C 93.1667,104.5 95.8333,104.5 98.5,104.5C 99.1667,104.5 99.8333,104.5 100.5,104.5C 99.9423,105.79 98.9423,106.623 97.5,107C 94.5,107.667 91.5,107.667 88.5,107C 87.1023,102.796 87.269,98.6291 89,94.5C 94.7875,87.8699 101.288,82.2032 108.5,77.5C 114.811,79.1214 117.311,83.1214 116,89.5C 115.292,90.3805 114.458,91.0472 113.5,91.5 Z"/></g>
<g><path style="opacity:1" fill="#4184fe" d="M 112.5,90.5 C 110.5,88.8333 108.5,87.1667 106.5,85.5C 104.002,81.4947 105.335,79.9947 110.5,81C 114.771,83.5673 115.438,86.7339 112.5,90.5 Z"/></g>
<g><path style="opacity:1" fill="#3880fe" d="M 105.5,86.5 C 106.96,88.4628 108.627,90.2962 110.5,92C 106.296,96.0356 102.296,100.202 98.5,104.5C 95.8333,104.5 93.1667,104.5 90.5,104.5C 90.3359,101.813 90.5026,99.146 91,96.5C 95.0156,92.6516 98.8489,88.6516 102.5,84.5C 103.518,85.1925 104.518,85.8592 105.5,86.5 Z"/></g>
<g><path style="opacity:1" fill="#f5f8ff" d="M 106.5,85.5 C 108.5,87.1667 110.5,88.8333 112.5,90.5C 113.167,90.5 113.5,90.8333 113.5,91.5C 109.5,96.1667 105.167,100.5 100.5,104.5C 99.8333,104.5 99.1667,104.5 98.5,104.5C 102.296,100.202 106.296,96.0356 110.5,92C 108.627,90.2962 106.96,88.4628 105.5,86.5C 105.5,85.8333 105.833,85.5 106.5,85.5 Z"/></g>
<g><path style="opacity:1" fill="#e8effe" d="M 82.5,78.5 C 87.2137,78.1734 91.8804,78.5067 96.5,79.5C 92.2044,80.3275 87.8711,80.8275 83.5,81C 81.9512,82.214 80.7845,83.714 80,85.5C 79.0576,94.602 79.3909,103.602 81,112.5C 81.8333,113.333 82.6667,114.167 83.5,115C 92.9091,115.917 102.242,115.584 111.5,114C 112.46,112.581 113.293,111.081 114,109.5C 114.173,105.459 114.673,101.459 115.5,97.5C 116.661,101.795 116.828,106.129 116,110.5C 115.654,112.848 114.487,114.681 112.5,116C 83.4081,126.219 71.5748,116.385 77,86.5C 78.2734,83.4027 80.1067,80.7361 82.5,78.5 Z"/></g>
</svg>
